#N canvas 0 515 824 581 12;
#X obj 155 112 oscparse;
#X obj 155 134 list trim;
#X msg 154 65 listen 8000;
#X obj 155 90 netreceive -u -b 8000;
#X obj 155 163 list trim;
#X obj 208 225 route h0;
#X obj 152 295 route x y;
#X obj 208 250 route f0 f1 f2 f3;
#X msg 152 318 \$1 50;
#X obj 152 341 line;
#X obj 152 550 ctlout 10;
#X obj 152 505 spigot;
#X obj 176 486 tgl 15 0 empty empty empty 17 7 0 10 -262144 -1 -1 1
1;
#X floatatom 152 528 5 0 0 0 - - -;
#X obj 152 409 int;
#X floatatom 152 432 5 0 127 0 - - -;
#X obj 152 386 * 128;
#X obj 154 365 hsl 20 15 0 1 0 0 empty empty empty -2 -8 0 10 -262144
-1 -1 684 1;
#X msg 221 318 \$1 50;
#X obj 221 341 line;
#X obj 221 505 spigot;
#X obj 245 486 tgl 15 0 empty empty empty 17 7 0 10 -262144 -1 -1 1
1;
#X floatatom 221 528 5 0 0 0 - - -;
#X obj 221 409 int;
#X floatatom 221 432 5 0 127 0 - - -;
#X obj 221 386 * 128;
#X obj 223 365 hsl 20 15 0 1 0 0 empty empty empty -2 -8 0 10 -262144
-1 -1 1141 1;
#X obj 221 550 ctlout 11;
#X obj 290 295 route x y;
#X msg 290 318 \$1 50;
#X obj 290 341 line;
#X obj 290 505 spigot;
#X obj 314 486 tgl 15 0 empty empty empty 17 7 0 10 -262144 -1 -1 0
1;
#X floatatom 290 528 5 0 0 0 - - -;
#X obj 290 409 int;
#X floatatom 290 432 5 0 127 0 - - -;
#X obj 290 386 * 128;
#X obj 292 365 hsl 20 15 0 1 0 0 empty empty empty -2 -8 0 10 -262144
-1 -1 656 1;
#X msg 359 318 \$1 50;
#X obj 359 341 line;
#X obj 359 505 spigot;
#X obj 383 486 tgl 15 0 empty empty empty 17 7 0 10 -262144 -1 -1 0
1;
#X floatatom 359 528 5 0 0 0 - - -;
#X obj 359 409 int;
#X floatatom 359 432 5 0 127 0 - - -;
#X obj 359 386 * 128;
#X obj 361 365 hsl 20 15 0 1 0 0 empty empty empty -2 -8 0 10 -262144
-1 -1 1052 1;
#X obj 290 550 ctlout 12;
#X obj 359 550 ctlout 13;
#X obj 428 295 route x y;
#X msg 428 318 \$1 50;
#X obj 428 341 line;
#X obj 428 505 spigot;
#X obj 452 486 tgl 15 0 empty empty empty 17 7 0 10 -262144 -1 -1 0
1;
#X floatatom 428 528 5 0 0 0 - - -;
#X obj 428 409 int;
#X floatatom 428 432 5 0 127 0 - - -;
#X obj 428 386 * 128;
#X obj 430 365 hsl 20 15 0 1 0 0 empty empty empty -2 -8 0 10 -262144
-1 -1 629 1;
#X msg 497 318 \$1 50;
#X obj 497 341 line;
#X obj 497 505 spigot;
#X obj 521 486 tgl 15 0 empty empty empty 17 7 0 10 -262144 -1 -1 0
1;
#X floatatom 497 528 5 0 0 0 - - -;
#X obj 497 409 int;
#X floatatom 497 432 5 0 127 0 - - -;
#X obj 497 386 * 128;
#X obj 499 365 hsl 20 15 0 1 0 0 empty empty empty -2 -8 0 10 -262144
-1 -1 926 1;
#X obj 566 295 route x y;
#X msg 566 318 \$1 50;
#X obj 566 341 line;
#X obj 566 505 spigot;
#X obj 590 486 tgl 15 0 empty empty empty 17 7 0 10 -262144 -1 -1 0
1;
#X floatatom 566 528 5 0 0 0 - - -;
#X obj 566 409 int;
#X floatatom 566 432 5 0 127 0 - - -;
#X obj 566 386 * 128;
#X obj 568 365 hsl 20 15 0 1 0 0 empty empty empty -2 -8 0 10 -262144
-1 -1 583 1;
#X msg 635 318 \$1 50;
#X obj 635 341 line;
#X obj 635 505 spigot;
#X obj 659 486 tgl 15 0 empty empty empty 17 7 0 10 -262144 -1 -1 0
1;
#X floatatom 635 528 5 0 0 0 - - -;
#X obj 635 409 int;
#X floatatom 635 432 5 0 127 0 - - -;
#X obj 635 386 * 128;
#X obj 637 365 hsl 20 15 0 1 0 0 empty empty empty -2 -8 0 10 -262144
-1 -1 850 1;
#X obj 428 550 ctlout 14;
#X obj 497 550 ctlout 15;
#X obj 566 550 ctlout 16;
#X obj 635 550 ctlout 17;
#X obj 165 654 route x y;
#X obj 221 609 route f0 f1 f2 f3;
#X msg 165 677 \$1 50;
#X obj 165 700 line;
#X obj 165 864 spigot;
#X obj 189 845 tgl 15 0 empty empty empty 17 7 0 10 -262144 -1 -1 0
1;
#X floatatom 165 887 5 0 0 0 - - -;
#X obj 165 768 int;
#X floatatom 165 791 5 0 127 0 - - -;
#X obj 165 745 * 128;
#X obj 167 724 hsl 20 15 0 1 0 0 empty empty empty -2 -8 0 10 -262144
-1 -1 605 1;
#X msg 234 677 \$1 50;
#X obj 234 700 line;
#X obj 234 864 spigot;
#X obj 258 845 tgl 15 0 empty empty empty 17 7 0 10 -262144 -1 -1 0
1;
#X floatatom 234 887 5 0 0 0 - - -;
#X obj 234 768 int;
#X floatatom 234 791 5 0 127 0 - - -;
#X obj 234 745 * 128;
#X obj 236 724 hsl 20 15 0 1 0 0 empty empty empty -2 -8 0 10 -262144
-1 -1 361 1;
#X obj 303 654 route x y;
#X msg 303 677 \$1 50;
#X obj 303 700 line;
#X obj 303 864 spigot;
#X obj 327 845 tgl 15 0 empty empty empty 17 7 0 10 -262144 -1 -1 0
1;
#X floatatom 303 887 5 0 0 0 - - -;
#X obj 303 768 int;
#X floatatom 303 791 5 0 127 0 - - -;
#X obj 303 745 * 128;
#X obj 305 724 hsl 20 15 0 1 0 0 empty empty empty -2 -8 0 10 -262144
-1 -1 544 1;
#X msg 372 677 \$1 50;
#X obj 372 700 line;
#X obj 372 864 spigot;
#X obj 396 845 tgl 15 0 empty empty empty 17 7 0 10 -262144 -1 -1 0
1;
#X floatatom 372 887 5 0 0 0 - - -;
#X obj 372 768 int;
#X floatatom 372 791 5 0 127 0 - - -;
#X obj 372 745 * 128;
#X obj 374 724 hsl 20 15 0 1 0 0 empty empty empty -2 -8 0 10 -262144
-1 -1 287 1;
#X obj 441 654 route x y;
#X msg 441 677 \$1 50;
#X obj 441 700 line;
#X obj 441 864 spigot;
#X obj 465 845 tgl 15 0 empty empty empty 17 7 0 10 -262144 -1 -1 0
1;
#X floatatom 441 887 5 0 0 0 - - -;
#X obj 441 768 int;
#X floatatom 441 791 5 0 127 0 - - -;
#X obj 441 745 * 128;
#X obj 443 724 hsl 20 15 0 1 0 0 empty empty empty -2 -8 0 10 -262144
-1 -1 462 1;
#X msg 510 677 \$1 50;
#X obj 510 700 line;
#X obj 510 864 spigot;
#X obj 534 845 tgl 15 0 empty empty empty 17 7 0 10 -262144 -1 -1 0
1;
#X floatatom 510 887 5 0 0 0 - - -;
#X obj 510 768 int;
#X floatatom 510 791 5 0 127 0 - - -;
#X obj 510 745 * 128;
#X obj 512 724 hsl 20 15 0 1 0 0 empty empty empty -2 -8 0 10 -262144
-1 -1 279 1;
#X obj 579 654 route x y;
#X msg 579 677 \$1 50;
#X obj 579 700 line;
#X obj 579 864 spigot;
#X obj 603 845 tgl 15 0 empty empty empty 17 7 0 10 -262144 -1 -1 0
1;
#X floatatom 579 887 5 0 0 0 - - -;
#X obj 579 768 int;
#X floatatom 579 791 5 0 127 0 - - -;
#X obj 579 745 * 128;
#X obj 581 724 hsl 20 15 0 1 0 0 empty empty empty -2 -8 0 10 -262144
-1 -1 359 1;
#X msg 648 677 \$1 50;
#X obj 648 700 line;
#X obj 648 864 spigot;
#X obj 672 845 tgl 15 0 empty empty empty 17 7 0 10 -262144 -1 -1 0
1;
#X floatatom 648 887 5 0 0 0 - - -;
#X obj 648 768 int;
#X floatatom 648 791 5 0 127 0 - - -;
#X obj 648 745 * 128;
#X obj 650 724 hsl 20 15 0 1 0 0 empty empty empty -2 -8 0 10 -262144
-1 -1 351 1;
#X obj 221 584 route h1;
#X obj 165 909 ctlout 20;
#X obj 234 909 ctlout 21;
#X obj 303 909 ctlout 22;
#X obj 372 909 ctlout 23;
#X obj 441 909 ctlout 24;
#X obj 510 909 ctlout 25;
#X obj 579 909 ctlout 26;
#X obj 648 909 ctlout 27;
#X obj 434 1081 vsl 15 128 0 127 0 0 empty empty empty 0 -9 0 10 -262144
-1 -1 0 1;
#X connect 0 0 1 0;
#X connect 1 0 4 0;
#X connect 2 0 3 0;
#X connect 3 0 0 0;
#X connect 4 0 5 0;
#X connect 4 0 168 0;
#X connect 5 0 7 0;
#X connect 6 0 8 0;
#X connect 6 1 18 0;
#X connect 7 0 6 0;
#X connect 7 1 28 0;
#X connect 7 2 49 0;
#X connect 7 3 68 0;
#X connect 8 0 9 0;
#X connect 9 0 17 0;
#X connect 11 0 13 0;
#X connect 12 0 11 1;
#X connect 13 0 10 0;
#X connect 14 0 15 0;
#X connect 15 0 11 0;
#X connect 16 0 14 0;
#X connect 17 0 16 0;
#X connect 18 0 19 0;
#X connect 19 0 26 0;
#X connect 20 0 22 0;
#X connect 21 0 20 1;
#X connect 22 0 27 0;
#X connect 23 0 24 0;
#X connect 24 0 20 0;
#X connect 25 0 23 0;
#X connect 26 0 25 0;
#X connect 28 0 29 0;
#X connect 28 1 38 0;
#X connect 29 0 30 0;
#X connect 30 0 37 0;
#X connect 31 0 33 0;
#X connect 32 0 31 1;
#X connect 33 0 47 0;
#X connect 34 0 35 0;
#X connect 35 0 31 0;
#X connect 36 0 34 0;
#X connect 37 0 36 0;
#X connect 38 0 39 0;
#X connect 39 0 46 0;
#X connect 40 0 42 0;
#X connect 41 0 40 1;
#X connect 42 0 48 0;
#X connect 43 0 44 0;
#X connect 44 0 40 0;
#X connect 45 0 43 0;
#X connect 46 0 45 0;
#X connect 49 0 50 0;
#X connect 49 1 59 0;
#X connect 50 0 51 0;
#X connect 51 0 58 0;
#X connect 52 0 54 0;
#X connect 53 0 52 1;
#X connect 54 0 87 0;
#X connect 55 0 56 0;
#X connect 56 0 52 0;
#X connect 57 0 55 0;
#X connect 58 0 57 0;
#X connect 59 0 60 0;
#X connect 60 0 67 0;
#X connect 61 0 63 0;
#X connect 62 0 61 1;
#X connect 63 0 88 0;
#X connect 64 0 65 0;
#X connect 65 0 61 0;
#X connect 66 0 64 0;
#X connect 67 0 66 0;
#X connect 68 0 69 0;
#X connect 68 1 78 0;
#X connect 69 0 70 0;
#X connect 70 0 77 0;
#X connect 71 0 73 0;
#X connect 72 0 71 1;
#X connect 73 0 89 0;
#X connect 74 0 75 0;
#X connect 75 0 71 0;
#X connect 76 0 74 0;
#X connect 77 0 76 0;
#X connect 78 0 79 0;
#X connect 79 0 86 0;
#X connect 80 0 82 0;
#X connect 81 0 80 1;
#X connect 82 0 90 0;
#X connect 83 0 84 0;
#X connect 84 0 80 0;
#X connect 85 0 83 0;
#X connect 86 0 85 0;
#X connect 91 0 93 0;
#X connect 91 1 102 0;
#X connect 92 0 91 0;
#X connect 92 1 111 0;
#X connect 92 2 130 0;
#X connect 92 3 149 0;
#X connect 93 0 94 0;
#X connect 94 0 101 0;
#X connect 95 0 97 0;
#X connect 96 0 95 1;
#X connect 97 0 169 0;
#X connect 98 0 99 0;
#X connect 99 0 95 0;
#X connect 100 0 98 0;
#X connect 101 0 100 0;
#X connect 102 0 103 0;
#X connect 103 0 110 0;
#X connect 104 0 106 0;
#X connect 105 0 104 1;
#X connect 106 0 170 0;
#X connect 107 0 108 0;
#X connect 108 0 104 0;
#X connect 109 0 107 0;
#X connect 110 0 109 0;
#X connect 111 0 112 0;
#X connect 111 1 121 0;
#X connect 112 0 113 0;
#X connect 113 0 120 0;
#X connect 114 0 116 0;
#X connect 115 0 114 1;
#X connect 116 0 171 0;
#X connect 117 0 118 0;
#X connect 118 0 114 0;
#X connect 119 0 117 0;
#X connect 120 0 119 0;
#X connect 121 0 122 0;
#X connect 122 0 129 0;
#X connect 123 0 125 0;
#X connect 124 0 123 1;
#X connect 125 0 172 0;
#X connect 126 0 127 0;
#X connect 127 0 123 0;
#X connect 128 0 126 0;
#X connect 129 0 128 0;
#X connect 130 0 131 0;
#X connect 130 1 140 0;
#X connect 131 0 132 0;
#X connect 132 0 139 0;
#X connect 133 0 135 0;
#X connect 134 0 133 1;
#X connect 135 0 173 0;
#X connect 136 0 137 0;
#X connect 137 0 133 0;
#X connect 138 0 136 0;
#X connect 139 0 138 0;
#X connect 140 0 141 0;
#X connect 141 0 148 0;
#X connect 142 0 144 0;
#X connect 143 0 142 1;
#X connect 144 0 174 0;
#X connect 145 0 146 0;
#X connect 146 0 142 0;
#X connect 147 0 145 0;
#X connect 148 0 147 0;
#X connect 149 0 150 0;
#X connect 149 1 159 0;
#X connect 150 0 151 0;
#X connect 151 0 158 0;
#X connect 152 0 154 0;
#X connect 153 0 152 1;
#X connect 154 0 175 0;
#X connect 155 0 156 0;
#X connect 156 0 152 0;
#X connect 157 0 155 0;
#X connect 158 0 157 0;
#X connect 159 0 160 0;
#X connect 160 0 167 0;
#X connect 161 0 163 0;
#X connect 162 0 161 1;
#X connect 163 0 176 0;
#X connect 164 0 165 0;
#X connect 165 0 161 0;
#X connect 166 0 164 0;
#X connect 167 0 166 0;
#X connect 168 0 92 0;
