#N canvas 916 25 1012 667 12;
#X obj 102 109 oscparse;
#X obj 102 131 list trim;
#X msg 101 62 listen 8000;
#X obj 102 87 netreceive -u -b 8000;
#X obj 114 163 list trim;
#X obj 70 263 route h0;
#X obj 70 311 route x y;
#X floatatom 19 406 5 0 0 0 - - -;
#X floatatom 48 449 5 0 0 0 - - -;
#X obj 139 311 route x y;
#X obj 209 311 route x y;
#X obj 70 288 route f0 f1 f2 f3;
#X obj 19 428 + 1;
#X obj 19 474 osc~;
#X obj 19 497 *~ 0.5;
#X obj 19 520 *~;
#X obj 633 165 dac~;
#X obj 673 112 tgl 15 0 empty empty empty 17 7 0 10 -262144 -1 -1 0
1;
#X obj 632 110 *~;
#X obj 634 135 *~ 0.1;
#X obj 528 78 r~ hand1;
#X obj 632 71 r~ hand2;
#X obj 169 610 s~ hand1;
#X obj 278 311 route x y;
#X obj 19 451 * 200;
#X msg 19 360 \$1 50;
#X obj 19 383 line;
#X obj 60 414 line;
#X msg 59 389 \$1 50;
#X floatatom 114 407 5 0 0 0 - - -;
#X floatatom 143 450 5 0 0 0 - - -;
#X obj 114 429 + 1;
#X obj 114 475 osc~;
#X obj 114 498 *~ 0.5;
#X obj 114 521 *~;
#X obj 114 452 * 200;
#X msg 114 361 \$1 50;
#X obj 114 384 line;
#X obj 155 415 line;
#X msg 154 390 \$1 50;
#X floatatom 214 404 5 0 0 0 - - -;
#X floatatom 243 447 5 0 0 0 - - -;
#X obj 214 426 + 1;
#X obj 214 472 osc~;
#X obj 214 495 *~ 0.5;
#X obj 214 518 *~;
#X obj 214 449 * 200;
#X msg 214 358 \$1 50;
#X obj 214 381 line;
#X obj 255 412 line;
#X msg 254 387 \$1 50;
#X floatatom 300 406 5 0 0 0 - - -;
#X floatatom 329 449 5 0 0 0 - - -;
#X obj 300 428 + 1;
#X obj 300 474 osc~;
#X obj 300 497 *~ 0.5;
#X obj 300 520 *~;
#X obj 300 451 * 200;
#X msg 300 360 \$1 50;
#X obj 300 383 line;
#X obj 341 414 line;
#X msg 340 389 \$1 50;
#X obj 494 310 route x y;
#X floatatom 443 405 5 0 0 0 - - -;
#X floatatom 472 448 5 0 0 0 - - -;
#X obj 563 310 route x y;
#X obj 633 310 route x y;
#X obj 494 287 route f0 f1 f2 f3;
#X obj 443 427 + 1;
#X obj 443 473 osc~;
#X obj 443 496 *~ 0.5;
#X obj 443 519 *~;
#X obj 702 310 route x y;
#X obj 443 450 * 200;
#X msg 443 359 \$1 50;
#X obj 443 382 line;
#X obj 484 413 line;
#X msg 483 388 \$1 50;
#X floatatom 538 406 5 0 0 0 - - -;
#X floatatom 567 449 5 0 0 0 - - -;
#X obj 538 428 + 1;
#X obj 538 474 osc~;
#X obj 538 497 *~ 0.5;
#X obj 538 520 *~;
#X obj 538 451 * 200;
#X msg 538 360 \$1 50;
#X obj 538 383 line;
#X obj 579 414 line;
#X msg 578 389 \$1 50;
#X floatatom 638 403 5 0 0 0 - - -;
#X floatatom 667 446 5 0 0 0 - - -;
#X obj 638 425 + 1;
#X obj 638 471 osc~;
#X obj 638 494 *~ 0.5;
#X obj 638 517 *~;
#X obj 638 448 * 200;
#X msg 638 357 \$1 50;
#X obj 638 380 line;
#X obj 679 411 line;
#X msg 678 386 \$1 50;
#X floatatom 724 405 5 0 0 0 - - -;
#X floatatom 753 448 5 0 0 0 - - -;
#X obj 724 427 + 1;
#X obj 724 473 osc~;
#X obj 724 496 *~ 0.5;
#X obj 724 519 *~;
#X obj 724 450 * 200;
#X msg 724 359 \$1 50;
#X obj 724 382 line;
#X obj 765 413 line;
#X msg 764 388 \$1 50;
#X obj 494 262 route h1;
#X obj 593 609 s~ hand2;
#X connect 0 0 1 0;
#X connect 1 0 4 0;
#X connect 2 0 3 0;
#X connect 3 0 0 0;
#X connect 4 0 5 0;
#X connect 4 0 111 0;
#X connect 5 0 11 0;
#X connect 6 0 25 0;
#X connect 6 1 28 0;
#X connect 7 0 12 0;
#X connect 8 0 15 1;
#X connect 9 0 36 0;
#X connect 9 1 39 0;
#X connect 10 0 47 0;
#X connect 10 1 50 0;
#X connect 11 0 6 0;
#X connect 11 1 9 0;
#X connect 11 2 10 0;
#X connect 12 0 24 0;
#X connect 13 0 14 0;
#X connect 14 0 15 0;
#X connect 15 0 22 0;
#X connect 17 0 18 1;
#X connect 18 0 19 0;
#X connect 19 0 16 0;
#X connect 19 0 16 1;
#X connect 20 0 18 0;
#X connect 21 0 18 0;
#X connect 23 0 58 0;
#X connect 23 1 61 0;
#X connect 24 0 13 0;
#X connect 25 0 26 0;
#X connect 26 0 7 0;
#X connect 27 0 8 0;
#X connect 28 0 27 0;
#X connect 29 0 31 0;
#X connect 30 0 34 1;
#X connect 31 0 35 0;
#X connect 32 0 33 0;
#X connect 33 0 34 0;
#X connect 34 0 22 0;
#X connect 35 0 32 0;
#X connect 36 0 37 0;
#X connect 37 0 29 0;
#X connect 38 0 30 0;
#X connect 39 0 38 0;
#X connect 40 0 42 0;
#X connect 41 0 45 1;
#X connect 42 0 46 0;
#X connect 43 0 44 0;
#X connect 44 0 45 0;
#X connect 45 0 22 0;
#X connect 46 0 43 0;
#X connect 47 0 48 0;
#X connect 48 0 40 0;
#X connect 49 0 41 0;
#X connect 50 0 49 0;
#X connect 51 0 53 0;
#X connect 52 0 56 1;
#X connect 53 0 57 0;
#X connect 54 0 55 0;
#X connect 55 0 56 0;
#X connect 56 0 22 0;
#X connect 57 0 54 0;
#X connect 58 0 59 0;
#X connect 59 0 51 0;
#X connect 60 0 52 0;
#X connect 61 0 60 0;
#X connect 62 0 74 0;
#X connect 62 1 77 0;
#X connect 63 0 68 0;
#X connect 64 0 71 1;
#X connect 65 0 85 0;
#X connect 65 1 88 0;
#X connect 66 0 96 0;
#X connect 66 1 99 0;
#X connect 67 0 62 0;
#X connect 67 1 65 0;
#X connect 67 2 66 0;
#X connect 68 0 73 0;
#X connect 69 0 70 0;
#X connect 70 0 71 0;
#X connect 71 0 112 0;
#X connect 72 0 107 0;
#X connect 72 1 110 0;
#X connect 73 0 69 0;
#X connect 74 0 75 0;
#X connect 75 0 63 0;
#X connect 76 0 64 0;
#X connect 77 0 76 0;
#X connect 78 0 80 0;
#X connect 79 0 83 1;
#X connect 80 0 84 0;
#X connect 81 0 82 0;
#X connect 82 0 83 0;
#X connect 83 0 112 0;
#X connect 84 0 81 0;
#X connect 85 0 86 0;
#X connect 86 0 78 0;
#X connect 87 0 79 0;
#X connect 88 0 87 0;
#X connect 89 0 91 0;
#X connect 90 0 94 1;
#X connect 91 0 95 0;
#X connect 92 0 93 0;
#X connect 93 0 94 0;
#X connect 94 0 112 0;
#X connect 95 0 92 0;
#X connect 96 0 97 0;
#X connect 97 0 89 0;
#X connect 98 0 90 0;
#X connect 99 0 98 0;
#X connect 100 0 102 0;
#X connect 101 0 105 1;
#X connect 102 0 106 0;
#X connect 103 0 104 0;
#X connect 104 0 105 0;
#X connect 105 0 112 0;
#X connect 106 0 103 0;
#X connect 107 0 108 0;
#X connect 108 0 100 0;
#X connect 109 0 101 0;
#X connect 110 0 109 0;
#X connect 111 0 67 0;
